<svg width="1512" height="1134" xmlns="http://www.w3.org/2000/svg" xmlns:xlink="http://www.w3.org/1999/xlink" overflow="hidden"><defs><clipPath id="clip0"><rect x="0" y="0" width="1512" height="1134"/></clipPath><linearGradient x1="664" y1="294.011" x2="664" y2="243.009" gradientUnits="userSpaceOnUse" spreadMethod="reflect" id="fill1"><stop offset="0"/><stop offset="0.48" stop-color="#080808"/><stop offset="1" stop-color="#666666"/></linearGradient><linearGradient x1="664" y1="409.015" x2="664" y2="357.013" gradientUnits="userSpaceOnUse" spreadMethod="reflect" id="fill2"><stop offset="0" stop-color="#4B7430"/><stop offset="0.48" stop-color="#74B349"/><stop offset="1" stop-color="#A9D18E"/></linearGradient><linearGradient x1="488" y1="409.015" x2="488" y2="357.013" gradientUnits="userSpaceOnUse" spreadMethod="reflect" id="fill3"><stop offset="0"/><stop offset="0.48" stop-color="#080808"/><stop offset="1" stop-color="#666666"/></linearGradient><linearGradient x1="416" y1="526.019" x2="416" y2="474.017" gradientUnits="userSpaceOnUse" spreadMethod="reflect" id="fill4"><stop offset="0" stop-color="#4B7430"/><stop offset="0.48" stop-color="#74B349"/><stop offset="1" stop-color="#A9D18E"/></linearGradient><linearGradient x1="553" y1="526.019" x2="553" y2="474.017" gradientUnits="userSpaceOnUse" spreadMethod="reflect" id="fill5"><stop offset="0" stop-color="#4B7430"/><stop offset="0.48" stop-color="#74B349"/><stop offset="1" stop-color="#A9D18E"/></linearGradient><linearGradient x1="834" y1="409.015" x2="834" y2="357.013" gradientUnits="userSpaceOnUse" spreadMethod="reflect" id="fill6"><stop offset="0"/><stop offset="0.48" stop-color="#080808"/><stop offset="1" stop-color="#666666"/></linearGradient><linearGradient x1="773" y1="526.019" x2="773" y2="474.017" gradientUnits="userSpaceOnUse" spreadMethod="reflect" id="fill7"><stop offset="0" stop-color="#4B7430"/><stop offset="0.48" stop-color="#74B349"/><stop offset="1" stop-color="#A9D18E"/></linearGradient><linearGradient x1="912" y1="526.019" x2="912" y2="474.017" gradientUnits="userSpaceOnUse" spreadMethod="reflect" id="fill8"><stop offset="0"/><stop offset="0.48" stop-color="#080808"/><stop offset="1" stop-color="#666666"/></linearGradient><linearGradient x1="990" y1="645.024" x2="990" y2="593.022" gradientUnits="userSpaceOnUse" spreadMethod="reflect" id="fill9"><stop offset="0"/><stop offset="0.48" stop-color="#080808"/><stop offset="1" stop-color="#666666"/></linearGradient><linearGradient x1="923" y1="759.028" x2="923" y2="707.026" gradientUnits="userSpaceOnUse" spreadMethod="reflect" id="fill10"><stop offset="0" stop-color="#4B7430"/><stop offset="0.48" stop-color="#74B349"/><stop offset="1" stop-color="#A9D18E"/></linearGradient><linearGradient x1="848" y1="645.024" x2="848" y2="593.022" gradientUnits="userSpaceOnUse" spreadMethod="reflect" id="fill11"><stop offset="0" stop-color="#4B7430"/><stop offset="0.48" stop-color="#74B349"/><stop offset="1" stop-color="#A9D18E"/></linearGradient><linearGradient x1="1062" y1="759.028" x2="1062" y2="707.026" gradientUnits="userSpaceOnUse" spreadMethod="reflect" id="fill12"><stop offset="0" stop-color="#4B7430"/><stop offset="0.48" stop-color="#74B349"/><stop offset="1" stop-color="#A9D18E"/></linearGradient></defs><g clip-path="url(#clip0)"><rect x="0" y="0" width="1512" height="1134.04" fill="#FFFFFF"/><path d="M600 251.509C600 246.815 603.806 243.009 608.5 243.009L719.5 243.009C724.194 243.009 728 246.815 728 251.509L728 285.51C728 290.205 724.194 294.011 719.5 294.011L608.5 294.011C603.806 294.011 600 290.205 600 285.51Z" fill="url(#fill1)" fill-rule="evenodd"/><text fill="#FFFFFF" font-family="Calibri,Calibri_MSFontService,sans-serif" font-weight="400" font-size="20" transform="matrix(1 0 0 1.00004 649.225 275)">Age</text><path d="M0 0 176.689 62.3543" stroke="#4472C4" stroke-width="2.66696" stroke-miterlimit="8" fill="none" fill-rule="evenodd" transform="matrix(-1 0 0 1.00004 665.189 294.511)"/><path d="M664.5 294.511 664.5 356.867" stroke="#4472C4" stroke-width="2.66696" stroke-miterlimit="8" fill="none" fill-rule="evenodd"/><path d="M664.5 294.511 834.288 356.867" stroke="#4472C4" stroke-width="2.66696" stroke-miterlimit="8" fill="none" fill-rule="evenodd"/><path d="M600 365.68C600 360.894 603.88 357.013 608.667 357.013L719.333 357.013C724.12 357.013 728 360.894 728 365.68L728 400.348C728 405.135 724.12 409.015 719.333 409.015L608.667 409.015C603.88 409.015 600 405.135 600 400.348Z" fill="url(#fill2)" fill-rule="evenodd"/><text font-family="Calibri,Calibri_MSFontService,sans-serif" font-weight="400" font-size="20" transform="matrix(1 0 0 1.00004 627.509 389)">Buy = Yes</text><path d="M424 365.68C424 360.894 427.88 357.013 432.667 357.013L543.333 357.013C548.12 357.013 552 360.894 552 365.68L552 400.348C552 405.135 548.12 409.015 543.333 409.015L432.667 409.015C427.88 409.015 424 405.135 424 400.348Z" fill="url(#fill3)" fill-rule="evenodd"/><text fill="#FFFFFF" font-family="Calibri,Calibri_MSFontService,sans-serif" font-weight="400" font-size="20" transform="matrix(1 0 0 1.00004 456.544 389)">Student</text><path d="M0 0 71.4005 65.548" stroke="#4472C4" stroke-width="2.66696" stroke-miterlimit="8" fill="none" fill-rule="evenodd" transform="matrix(-1 0 0 1.00004 487.901 409.515)"/><path d="M488.5 409.515 554.224 475.066" stroke="#4472C4" stroke-width="2.66696" stroke-miterlimit="8" fill="none" fill-rule="evenodd"/><path d="M352 482.685C352 477.898 355.88 474.017 360.667 474.017L471.333 474.017C476.12 474.017 480 477.898 480 482.685L480 517.352C480 522.139 476.12 526.019 471.333 526.019L360.667 526.019C355.88 526.019 352 522.139 352 517.352Z" fill="url(#fill4)" fill-rule="evenodd"/><text font-family="Calibri,Calibri_MSFontService,sans-serif" font-weight="400" font-size="20" transform="matrix(1 0 0 1.00004 379.419 507)">Buy = Yes</text><path d="M489 482.685C489 477.898 492.88 474.017 497.667 474.017L608.333 474.017C613.12 474.017 617 477.898 617 482.685L617 517.352C617 522.139 613.12 526.019 608.333 526.019L497.667 526.019C492.88 526.019 489 522.139 489 517.352Z" fill="url(#fill5)" fill-rule="evenodd"/><text font-family="Calibri,Calibri_MSFontService,sans-serif" font-weight="400" font-size="20" transform="matrix(1 0 0 1.00004 517.761 507)">Buy = No</text><path d="M770 365.68C770 360.894 773.88 357.013 778.667 357.013L889.333 357.013C894.12 357.013 898 360.894 898 365.68L898 400.348C898 405.135 894.12 409.015 889.333 409.015L778.667 409.015C773.88 409.015 770 405.135 770 400.348Z" fill="url(#fill6)" fill-rule="evenodd"/><text fill="#FFFFFF" font-family="Calibri,Calibri_MSFontService,sans-serif" font-weight="400" font-size="20" transform="matrix(1 0 0 1.00004 782.898 389)">Credit Rating</text><path d="M0 0 61.1318 65.548" stroke="#4472C4" stroke-width="2.66696" stroke-miterlimit="8" fill="none" fill-rule="evenodd" transform="matrix(-1 0 0 1.00004 834.632 409.515)"/><path d="M834.5 409.515 912.394 475.066" stroke="#4472C4" stroke-width="2.66696" stroke-miterlimit="8" fill="none" fill-rule="evenodd"/><path d="M709 482.685C709 477.898 712.88 474.017 717.667 474.017L828.333 474.017C833.12 474.017 837 477.898 837 482.685L837 517.352C837 522.139 833.12 526.019 828.333 526.019L717.667 526.019C712.88 526.019 709 522.139 709 517.352Z" fill="url(#fill7)" fill-rule="evenodd"/><text font-family="Calibri,Calibri_MSFontService,sans-serif" font-weight="400" font-size="20" transform="matrix(1 0 0 1.00004 736.165 507)">Buy = Yes</text><path d="M848 482.685C848 477.898 851.88 474.017 856.667 474.017L967.333 474.017C972.12 474.017 976 477.898 976 482.685L976 517.352C976 522.139 972.12 526.019 967.333 526.019L856.667 526.019C851.88 526.019 848 522.139 848 517.352Z" fill="url(#fill8)" fill-rule="evenodd"/><text fill="#FFFFFF" font-family="Calibri,Calibri_MSFontService,sans-serif" font-weight="400" font-size="20" transform="matrix(1 0 0 1.00004 882.655 507)">Income</text><path d="M912.5 526.519 990.226 593.621" stroke="#4472C4" stroke-width="2.66696" stroke-miterlimit="8" fill="none" fill-rule="evenodd"/><path d="M0 0 63.9635 67.0988" stroke="#4472C4" stroke-width="2.66696" stroke-miterlimit="8" fill="none" fill-rule="evenodd" transform="matrix(-1 0 0 1.00004 912.464 526.519)"/><path d="M926 601.689C926 596.902 929.88 593.022 934.667 593.022L1045.33 593.022C1050.12 593.022 1054 596.902 1054 601.689L1054 636.357C1054 641.143 1050.12 645.024 1045.33 645.024L934.667 645.024C929.88 645.024 926 641.143 926 636.357Z" fill="url(#fill9)" fill-rule="evenodd"/><text fill="#FFFFFF" font-family="Calibri,Calibri_MSFontService,sans-serif" font-weight="400" font-size="20" transform="matrix(1 0 0 1.00004 958.641 626)">Student</text><path d="M0 0 66.5097 61.4424" stroke="#4472C4" stroke-width="2.66696" stroke-miterlimit="8" fill="none" fill-rule="evenodd" transform="matrix(-1 0 0 1.00004 990.01 645.524)"/><path d="M859 715.693C859 710.906 862.88 707.026 867.667 707.026L978.333 707.026C983.12 707.026 987 710.906 987 715.693L987 750.361C987 755.148 983.12 759.028 978.333 759.028L867.667 759.028C862.88 759.028 859 755.148 859 750.361Z" fill="url(#fill10)" fill-rule="evenodd"/><text font-family="Calibri,Calibri_MSFontService,sans-serif" font-weight="400" font-size="20" transform="matrix(1 0 0 1.00004 886.407 739)">Buy = Yes</text><path d="M784 601.689C784 596.902 787.88 593.022 792.667 593.022L903.333 593.022C908.12 593.022 912 596.902 912 601.689L912 636.357C912 641.143 908.12 645.024 903.333 645.024L792.667 645.024C787.88 645.024 784 641.143 784 636.357Z" fill="url(#fill11)" fill-rule="evenodd"/><text font-family="Calibri,Calibri_MSFontService,sans-serif" font-weight="400" font-size="20" transform="matrix(1 0 0 1.00004 812.445 626)">Buy = No</text><path d="M990.5 645.524 1062.53 706.968" stroke="#4472C4" stroke-width="2.66696" stroke-miterlimit="8" fill="none" fill-rule="evenodd"/><path d="M998 715.693C998 710.906 1001.88 707.026 1006.67 707.026L1117.33 707.026C1122.12 707.026 1126 710.906 1126 715.693L1126 750.361C1126 755.148 1122.12 759.028 1117.33 759.028L1006.67 759.028C1001.88 759.028 998 755.148 998 750.361Z" fill="url(#fill12)" fill-rule="evenodd"/><text font-family="Calibri,Calibri_MSFontService,sans-serif" font-weight="400" font-size="20" transform="matrix(1 0 0 1.00004 1026.16 739)">Buy = No<tspan font-size="24" x="-499.304" y="-410.985">&lt;30</tspan><tspan font-size="24" x="-266.278" y="-410.985">&gt;</tspan><tspan font-size="24" x="-254.277" y="-410.985">4</tspan><tspan font-size="24" x="-242.109" y="-410.985">0</tspan><tspan font-size="24" x="-392.292" y="-410.985">30..40</tspan><tspan font-size="24" x="-614.316" y="-295.989">yes</tspan><tspan font-size="24" x="-497.303" y="-295.989">no</tspan><tspan font-size="24" x="-259.277" y="-295.989">fai</tspan><tspan font-size="24" x="-235.408" y="-295.989">r</tspan><tspan font-size="24" x="-147.067" y="-295.989">excellent</tspan><tspan font-size="24" x="-183.132" y="-180.993">low</tspan><tspan font-size="24" x="-72.6918" y="-180.993">medium</tspan><tspan font-size="24" x="-106.124" y="-62.9977">ye</tspan><tspan font-size="24" x="-83.5812" y="-62.9977">s</tspan><tspan font-size="24" x="4.31677" y="-62.9977">no</tspan></text></g></svg>